<svg xmlns="http://www.w3.org/2000/svg" xmlns:xlink="http://www.w3.org/1999/xlink" width="308" zoomAndPan="magnify" viewBox="0 0 230.87999 263.99999" height="352" preserveAspectRatio="xMidYMid meet" version="1.0"><defs><g/><clipPath id="c3da164dcc"><path d="M 0 0.0703125 L 230.28125 0.0703125 L 230.28125 230.347656 L 0 230.347656 Z M 0 0.0703125 " clip-rule="nonzero"/></clipPath><clipPath id="02ba713ea2"><path d="M 115.140625 0.0703125 C 51.550781 0.0703125 0 51.617188 0 115.207031 C 0 178.800781 51.550781 230.347656 115.140625 230.347656 C 178.730469 230.347656 230.28125 178.800781 230.28125 115.207031 C 230.28125 51.617188 178.730469 0.0703125 115.140625 0.0703125 Z M 115.140625 0.0703125 " clip-rule="nonzero"/></clipPath></defs><g clip-path="url(#c3da164dcc)"><g clip-path="url(#02ba713ea2)"><path fill="#e69d00" d="M 0 0.0703125 L 230.28125 0.0703125 L 230.28125 230.347656 L 0 230.347656 Z M 0 0.0703125 " fill-opacity="1" fill-rule="nonzero"/></g></g><g fill="#ffffff" fill-opacity="1"><g transform="translate(75.384564, 170.927924)"><g><path d="M 22.671875 -77.375 L 3.0625 -86.84375 C 3.0625 -87.195312 3.328125 -88.148438 3.859375 -89.703125 C 4.398438 -91.265625 5.46875 -93.359375 7.0625 -95.984375 C 8.664062 -98.609375 10.691406 -101.078125 13.140625 -103.390625 C 15.585938 -105.703125 19.035156 -107.722656 23.484375 -109.453125 C 27.929688 -111.191406 32.953125 -112.0625 38.546875 -112.0625 C 48.867188 -112.0625 57.765625 -109.035156 65.234375 -102.984375 C 72.703125 -96.941406 76.4375 -89.335938 76.4375 -80.171875 C 76.4375 -68.878906 68.921875 -60.03125 53.890625 -53.625 C 51.847656 -52.738281 50.5625 -51.515625 50.03125 -49.953125 C 49.5 -48.398438 49.234375 -46.242188 49.234375 -43.484375 L 49.234375 -36.015625 L 27.21875 -36.015625 L 27.21875 -50.5625 C 27.21875 -52.957031 27.304688 -54.84375 27.484375 -56.21875 C 27.660156 -57.601562 28.238281 -59.117188 29.21875 -60.765625 C 30.195312 -62.410156 31.617188 -63.859375 33.484375 -65.109375 C 34.910156 -65.992188 36.820312 -67.035156 39.21875 -68.234375 C 41.625 -69.429688 43.40625 -70.382812 44.5625 -71.09375 C 45.71875 -71.8125 46.785156 -72.945312 47.765625 -74.5 C 48.742188 -76.0625 49.234375 -77.953125 49.234375 -80.171875 C 49.234375 -83.378906 48.1875 -86.003906 46.09375 -88.046875 C 44 -90.085938 41.441406 -91.109375 38.421875 -91.109375 C 34.066406 -91.109375 30.578125 -89.707031 27.953125 -86.90625 C 25.328125 -84.113281 23.566406 -80.9375 22.671875 -77.375 Z M 38.15625 -28.546875 C 42.425781 -28.546875 46.050781 -27.054688 49.03125 -24.078125 C 52.007812 -21.097656 53.5 -17.472656 53.5 -13.203125 C 53.5 -9.023438 52.007812 -5.445312 49.03125 -2.46875 C 46.050781 0.507812 42.425781 2 38.15625 2 C 33.976562 2 30.398438 0.507812 27.421875 -2.46875 C 24.441406 -5.445312 22.953125 -9.023438 22.953125 -13.203125 C 22.953125 -17.472656 24.441406 -21.097656 27.421875 -24.078125 C 30.398438 -27.054688 33.976562 -28.546875 38.15625 -28.546875 Z M 38.15625 -28.546875 "/></g></g></g></svg>