<svg version="1.1" xmlns="http://www.w3.org/2000/svg" xmlns:xlink="http://www.w3.org/1999/xlink" x="0px" y="0px"
	 viewBox="90 90 420 360"  xml:space="preserve">

<g id="objects">
	<g>
		<path style="fill:#F7263F;" d="M510,216.125C510,369.25,300,448,300,448S90,369.25,90,216.125C90,150.85,140.736,98,203.4,98
			c40.824,0,76.608,22.488,96.6,56.175C319.992,120.488,355.776,98,396.6,98C459.264,98,510,150.85,510,216.125z"/>
		<path style="fill:#CC1F3C;" d="M510,216.12C510,369.25,300,448,300,448s-84.19-31.57-145.96-93.61C361.66,415.7,437,293.4,437,202
			c0-70.76-50.37-92.31-74.45-98.57C373.3,99.9,384.74,98,396.6,98C459.26,98,510,150.85,510,216.12z"/>
		<path style="fill:#FF7683;" d="M219.04,126.267c-36.261-3.592-111.617,0.842-101.03,102.431c0.411,3.943,5.911,4.541,7.177,0.784
			c9.029-26.802,33.76-77.753,94.589-96.006C223.644,132.315,223.059,126.665,219.04,126.267z"/>
		
	</g>
</g>
</svg>