<svg xmlns="http://www.w3.org/2000/svg" xmlns:xlink="http://www.w3.org/1999/xlink" width="344" zoomAndPan="magnify" viewBox="0 0 258 263.99999" height="352" preserveAspectRatio="xMidYMid meet" version="1.0"><defs><g/><clipPath id="16b23131ae"><path d="M 13.605469 0 L 244.003906 0 L 244.003906 230.398438 L 13.605469 230.398438 Z M 13.605469 0 " clip-rule="nonzero"/></clipPath><clipPath id="e548429599"><path d="M 128.804688 0 C 65.179688 0 13.605469 51.578125 13.605469 115.199219 C 13.605469 178.824219 65.179688 230.398438 128.804688 230.398438 C 192.429688 230.398438 244.003906 178.824219 244.003906 115.199219 C 244.003906 51.578125 192.429688 0 128.804688 0 Z M 128.804688 0 " clip-rule="nonzero"/></clipPath></defs><g clip-path="url(#16b23131ae)"><g clip-path="url(#e548429599)"><path fill="#df5353" d="M 13.605469 0 L 244.003906 0 L 244.003906 230.398438 L 13.605469 230.398438 Z M 13.605469 0 " fill-opacity="1" fill-rule="nonzero"/></g></g><g fill="#ffffff" fill-opacity="1"><g transform="translate(49.252096, 170.325615)"><g><path d="M 22.6875 -77.40625 L 3.0625 -86.890625 C 3.0625 -87.242188 3.328125 -88.195312 3.859375 -89.75 C 4.398438 -91.3125 5.46875 -93.40625 7.0625 -96.03125 C 8.664062 -98.65625 10.691406 -101.125 13.140625 -103.4375 C 15.585938 -105.75 19.035156 -107.769531 23.484375 -109.5 C 27.929688 -111.238281 32.960938 -112.109375 38.578125 -112.109375 C 48.898438 -112.109375 57.796875 -109.082031 65.265625 -103.03125 C 72.742188 -96.988281 76.484375 -89.382812 76.484375 -80.21875 C 76.484375 -68.914062 68.960938 -60.0625 53.921875 -53.65625 C 51.878906 -52.757812 50.585938 -51.53125 50.046875 -49.96875 C 49.515625 -48.414062 49.25 -46.265625 49.25 -43.515625 L 49.25 -36.03125 L 27.234375 -36.03125 L 27.234375 -50.578125 C 27.234375 -52.984375 27.320312 -54.875 27.5 -56.25 C 27.675781 -57.632812 28.253906 -59.148438 29.234375 -60.796875 C 30.210938 -62.441406 31.632812 -63.882812 33.5 -65.125 C 34.925781 -66.019531 36.835938 -67.066406 39.234375 -68.265625 C 41.640625 -69.472656 43.421875 -70.429688 44.578125 -71.140625 C 45.734375 -71.847656 46.800781 -72.976562 47.78125 -74.53125 C 48.757812 -76.09375 49.25 -77.988281 49.25 -80.21875 C 49.25 -83.414062 48.203125 -86.035156 46.109375 -88.078125 C 44.023438 -90.128906 41.46875 -91.15625 38.4375 -91.15625 C 34.082031 -91.15625 30.59375 -89.753906 27.96875 -86.953125 C 25.34375 -84.148438 23.582031 -80.96875 22.6875 -77.40625 Z M 38.171875 -28.5625 C 42.441406 -28.5625 46.066406 -27.070312 49.046875 -24.09375 C 52.023438 -21.113281 53.515625 -17.488281 53.515625 -13.21875 C 53.515625 -9.03125 52.023438 -5.445312 49.046875 -2.46875 C 46.066406 0.507812 42.441406 2 38.171875 2 C 33.992188 2 30.410156 0.507812 27.421875 -2.46875 C 24.441406 -5.445312 22.953125 -9.03125 22.953125 -13.21875 C 22.953125 -17.488281 24.441406 -21.113281 27.421875 -24.09375 C 30.410156 -27.070312 33.992188 -28.5625 38.171875 -28.5625 Z M 38.171875 -28.5625 "/></g></g></g><g fill="#ffffff" fill-opacity="1"><g transform="translate(128.79719, 170.325615)"><g><path d="M 22.6875 -77.40625 L 3.0625 -86.890625 C 3.0625 -87.242188 3.328125 -88.195312 3.859375 -89.75 C 4.398438 -91.3125 5.46875 -93.40625 7.0625 -96.03125 C 8.664062 -98.65625 10.691406 -101.125 13.140625 -103.4375 C 15.585938 -105.75 19.035156 -107.769531 23.484375 -109.5 C 27.929688 -111.238281 32.960938 -112.109375 38.578125 -112.109375 C 48.898438 -112.109375 57.796875 -109.082031 65.265625 -103.03125 C 72.742188 -96.988281 76.484375 -89.382812 76.484375 -80.21875 C 76.484375 -68.914062 68.960938 -60.0625 53.921875 -53.65625 C 51.878906 -52.757812 50.585938 -51.53125 50.046875 -49.96875 C 49.515625 -48.414062 49.25 -46.265625 49.25 -43.515625 L 49.25 -36.03125 L 27.234375 -36.03125 L 27.234375 -50.578125 C 27.234375 -52.984375 27.320312 -54.875 27.5 -56.25 C 27.675781 -57.632812 28.253906 -59.148438 29.234375 -60.796875 C 30.210938 -62.441406 31.632812 -63.882812 33.5 -65.125 C 34.925781 -66.019531 36.835938 -67.066406 39.234375 -68.265625 C 41.640625 -69.472656 43.421875 -70.429688 44.578125 -71.140625 C 45.734375 -71.847656 46.800781 -72.976562 47.78125 -74.53125 C 48.757812 -76.09375 49.25 -77.988281 49.25 -80.21875 C 49.25 -83.414062 48.203125 -86.035156 46.109375 -88.078125 C 44.023438 -90.128906 41.46875 -91.15625 38.4375 -91.15625 C 34.082031 -91.15625 30.59375 -89.753906 27.96875 -86.953125 C 25.34375 -84.148438 23.582031 -80.96875 22.6875 -77.40625 Z M 38.171875 -28.5625 C 42.441406 -28.5625 46.066406 -27.070312 49.046875 -24.09375 C 52.023438 -21.113281 53.515625 -17.488281 53.515625 -13.21875 C 53.515625 -9.03125 52.023438 -5.445312 49.046875 -2.46875 C 46.066406 0.507812 42.441406 2 38.171875 2 C 33.992188 2 30.410156 0.507812 27.421875 -2.46875 C 24.441406 -5.445312 22.953125 -9.03125 22.953125 -13.21875 C 22.953125 -17.488281 24.441406 -21.113281 27.421875 -24.09375 C 30.410156 -27.070312 33.992188 -28.5625 38.171875 -28.5625 Z M 38.171875 -28.5625 "/></g></g></g></svg>